LG_Walk_Slower01																		
version=1																		
nRows=35																		
nColumns=19																		
inDegrees=yes																		
endheader																		
time	ground_force2_vx	ground_force2_vy	ground_force2_vz	ground_force2_px	ground_force2_py	ground_force2_pz	ground_torque2_x	ground_torque2_y	ground_torque2_z	ground_force1_vx	ground_force1_vy	ground_force1_vz	ground_force1_px	ground_force1_py	ground_force1_pz	ground_torque1_x	ground_torque1_y	ground_torque1_z
8.517	0	0	0	0.2	0	-0.3	0	0	0	39.654686	698.459412	83.125137	-0.134347	0	0.29851	-6.00E-06	-0.861887	-5.00E-06
8.518	0	0	0	0.2	0	-0.3	0	0	0	39.964649	698.459412	83.987015	-0.134384	0	0.298846	-6.00E-06	-0.861887	-4.00E-06
8.519	0	0	0	0.2	0	-0.3	0	0	0	40.433197	698.794678	84.221802	-0.134519	0	0.299179	-6.00E-06	-0.79344	-4.00E-06
8.52	0	0	0	0.2	0	-0.3	0	0	0	40.433197	699.832275	84.221802	-0.134519	0	0.299179	-1.30E-05	-0.910801	-4.00E-06
8.521	0	0	0	0.2	0	-0.3	0	0	0	40.198921	699.832275	84.221802	-0.134519	0	0.298471	-1.40E-05	-0.871671	-7.00E-06
8.522	0	0	0	0.2	0	-0.3	0	0	0	40.198921	697.605103	84.84861	-0.134567	0	0.298471	-1.70E-05	-0.871671	-8.00E-06
8.523	0	0	0	0.2	0	-0.3	0	0	0	40.904633	697.605103	86.494232	-0.134599	0	0.298925	-1.70E-05	-0.759217	-8.00E-06
8.524	0	0	0	0.2	0	-0.3	0	0	0	41.139629	697.077026	86.807755	-0.134579	0	0.298925	-1.30E-05	-0.699149	-8.00E-06
8.525	0	0	0	0.2	0	-0.3	0	0	0	41.139629	696.915466	87.042633	-0.134579	0	0.298925	-8.00E-06	-0.699149	-1.00E-05
8.526	0	0	0	0.2	0	-0.3	0	0	0	41.061775	695.695007	87.042633	-0.134579	0	0.298825	-5.00E-06	-0.751642	-1.00E-05
8.527	0	0	0	0.2	0	-0.3	0	0	0	40.906799	695.019958	87.512856	-0.134735	0	0.298825	-5.00E-06	-0.751642	1.00E-06
8.528	0	0	0	0.2	0	-0.3	0	0	0	40.906799	695.019958	88.844879	-0.134944	0	0.298825	-9.00E-06	-0.646772	1.00E-06
8.529	0	0	0	0.2	0	-0.3	0	0	0	41.061775	699.145325	89.628265	-0.134944	0	0.299044	-9.00E-06	-0.646772	-6.00E-06
8.53	0	0	0	0.2	0	-0.3	0	0	0	41.061775	699.145325	90.254944	-0.135188	0	0.299044	-9.00E-06	-0.750777	-6.00E-06
8.531	0	0	0	0.2	0	-0.3	0	0	0	41.061775	694.525452	91.27356	-0.13533	0	0.299044	-7.00E-06	-0.750777	-3.00E-06
8.532	0	0	0	0.2	0	-0.3	0	0	0	41.764603	693.819946	91.743912	-0.13533	0	0.298961	-1.10E-05	-0.617062	-2.00E-06
8.533	0	0	0	0.2	0	-0.3	0	0	0	41.843895	694.525452	92.292465	-0.135163	0	0.299119	-7.00E-06	-0.585902	-2.00E-06
8.534	0	0	0	0.2	0	-0.3	0	0	0	41.920303	694.687805	92.214012	-0.135163	0	0.299256	-1.60E-05	-0.585902	-5.00E-06
8.535	0	0	0	0.2	0	-0.3	0	0	0	42.236038	694.687805	92.292465	-0.135163	0	0.299256	-1.00E-05	-0.585902	-9.00E-06
8.536	0	0	0	0.2	0	-0.3	0	0	0	42.236038	693.482056	93.154266	-0.135245	0	0.298659	-1.20E-05	-0.574441	-9.00E-06
8.537	0	0	0	0.2	0	-0.3	0	0	0	42.153133	693.482056	93.702896	-0.135714	0	0.298592	-1.00E-05	-0.574441	-9.00E-06
8.538	0	0	0	0.2	0	-0.3	0	0	0	42.153133	692.126648	94.486526	-0.135714	0	0.298592	-1.20E-05	-0.542362	-3.00E-06
8.539	0	0	0	0.2	0	-0.3	0	0	0	43.168804	691.258728	94.721596	-0.135518	0	0.298801	-1.20E-05	-0.520656	-3.00E-06
8.54	0	0	0	0.2	0	-0.3	0	0	0	43.168804	691.258728	94.721596	-0.135461	0	0.298937	-1.20E-05	-0.503375	-6.00E-06
8.541	0	0	0	0.2	0	-0.3	0	0	0	42.464539	691.258728	94.956985	-0.135518	0	0.298937	-9.00E-06	-0.503375	-7.00E-06
8.542	0	0	0	0.2	0	-0.3	0	0	0	42.148804	690.927368	94.956985	-0.135687	0	0.298321	-6.00E-06	-0.549203	-8.00E-06
8.543	0	0	0	0.2	0	-0.3	0	0	0	42.148804	690.927368	95.740494	-0.135748	0	0.298321	-2.00E-06	-0.549203	-7.00E-06
8.544	0	0	0	0.2	0	-0.3	0	0	0	43.085182	689.726318	96.445908	-0.135748	0	0.299299	-6.00E-06	-0.514217	-9.00E-06
8.545	0	0	0	0.2	0	-0.3	0	0	0	43.085182	687.815002	96.680824	-0.13568	0	0.299299	-1.50E-05	-0.514217	-6.00E-06
8.546	0	0	0	0.2	0	-0.3	0	0	0	42.375862	687.815002	96.916306	-0.13568	0	0.298538	-1.50E-05	-0.575598	-5.00E-06
8.547	0	0	0	0.2	0	-0.3	0	0	0	42.375862	687.334717	96.916306	-0.136131	0	0.298205	-1.50E-05	-0.575598	-3.00E-06
8.548	0	0	0	0.2	0	-0.3	0	0	0	42.765118	687.848938	97.85675	-0.136335	0	0.298538	0.00E+00	-0.464433	-5.00E-06
8.549	0	0	0	0.2	0	-0.3	0	0	0	42.765118	689.218262	97.935165	-0.136223	0	0.298721	0	-0.425382	-3.00E-06
8.55	0	0	0	0.2	0	-0.3	0	0	0	42.765118	689.218262	98.405426	-0.136223	0	0.299152	0.00E+00	-0.425382	-5.00E-06
8.551	0	0	0	0.2	0	-0.3	0	0	0	42.996506	682.326477	100.129547	-0.136223	0	0.299152	-3.00E-06	-0.380851	-3.00E-06
